<?xml version="1.0" standalone="no"?><!DOCTYPE svg PUBLIC "-//W3C//DTD SVG 1.1//EN" "http://www.w3.org/Graphics/SVG/1.1/DTD/svg11.dtd"><svg t="1754974243788" class="icon" viewBox="0 0 1024 1024" version="1.1" xmlns="http://www.w3.org/2000/svg" p-id="1659" xmlns:xlink="http://www.w3.org/1999/xlink" width="200" height="200"><path d="M64 680c0-56.384 37.888-103.936 89.6-118.592V95.232c0-17.28 15.04-31.232 33.6-31.232 18.56 0 33.6 14.016 33.6 31.232v466.176a123.264 123.264 0 0 1 0 237.12v130.24c0 17.28-15.04 31.232-33.6 31.232-18.56 0-33.6-14.016-33.6-31.232v-130.24A123.264 123.264 0 0 1 64 680z m582.4-358.4c0 56.384-37.888 103.936-89.6 118.592v488.576c0 17.28-15.04 31.232-33.6 31.232-18.56 0-33.6-14.016-33.6-31.232V440.192a123.264 123.264 0 0 1 0-237.184V95.232c0-17.28 15.04-31.232 33.6-31.232 18.56 0 33.6 14.016 33.6 31.232v107.776c51.712 14.656 89.6 62.208 89.6 118.592z m313.6 358.4c0 56.384-37.888 103.936-89.6 118.528v130.24c0 17.28-15.04 31.232-33.6 31.232-18.56 0-33.6-14.016-33.6-31.232v-130.24a123.264 123.264 0 0 1 0-237.12V95.232c0-17.28 15.04-31.232 33.6-31.232 18.56 0 33.6 14.016 33.6 31.232v466.176c51.712 14.656 89.6 62.208 89.6 118.592zM523.2 265.6a53.952 53.952 0 0 0-39.616 16.384 53.952 53.952 0 0 0-16.384 39.616c0 15.488 5.44 28.672 16.384 39.616 10.944 10.88 24.128 16.384 39.616 16.384a53.952 53.952 0 0 0 39.616-16.384 53.952 53.952 0 0 0 16.384-39.616 53.952 53.952 0 0 0-16.384-39.616 53.952 53.952 0 0 0-39.616-16.384zM243.2 680a53.952 53.952 0 0 0-16.384-39.616 53.952 53.952 0 0 0-39.616-16.384 53.952 53.952 0 0 0-39.616 16.384 53.952 53.952 0 0 0-16.384 39.616c0 15.488 5.44 28.672 16.384 39.616 10.944 10.88 24.128 16.384 39.616 16.384a53.952 53.952 0 0 0 39.616-16.384 53.952 53.952 0 0 0 16.384-39.616z m593.6-56a53.952 53.952 0 0 0-39.616 16.384 53.952 53.952 0 0 0-16.384 39.616c0 15.488 5.44 28.672 16.384 39.616 10.944 10.88 24.128 16.384 39.616 16.384a53.952 53.952 0 0 0 39.616-16.384 53.952 53.952 0 0 0 16.384-39.616 53.952 53.952 0 0 0-16.384-39.616 53.952 53.952 0 0 0-39.616-16.384z" fill="#3D3D3D" p-id="1660"></path></svg>